<?xml version="1.0" encoding="UTF-8"?>
<svg version="1.1" xmlns="http://www.w3.org/2000/svg" width="512" height="512">
<path d="M0 0 C1.66330605 -0.01485695 1.66330605 -0.01485695 3.36021423 -0.03001404 C5.17055649 -0.02326157 5.17055649 -0.02326157 7.01747131 -0.01637268 C8.296035 -0.02323593 9.57459869 -0.03009918 10.89190674 -0.03717041 C14.39197481 -0.05509243 17.89179204 -0.0539353 21.39189219 -0.04822803 C24.31682719 -0.04513467 27.2417141 -0.05123027 30.16664225 -0.05726677 C37.06845679 -0.07130732 43.97014753 -0.06975476 50.8719635 -0.05836487 C57.98562094 -0.0468846 65.09890134 -0.06095856 72.2125091 -0.08776134 C78.32648047 -0.1099328 84.44033362 -0.11655248 90.55434233 -0.11068493 C94.2031387 -0.1073175 97.8516934 -0.10971587 101.50045586 -0.12693596 C105.57017188 -0.14530495 109.63915637 -0.13120332 113.70887756 -0.11402893 C115.51618347 -0.12853088 115.51618347 -0.12853088 117.36000061 -0.14332581 C123.66873638 -0.08751803 127.67340109 0.06319418 132.4278717 4.38768005 C135.6632107 8.36960277 135.89405485 12.13470369 135.93959045 17.0947113 C135.96651726 18.18280342 135.96651726 18.18280342 135.99398804 19.2928772 C136.04789387 21.59525347 136.08192171 23.89742485 136.1153717 26.20018005 C136.14856238 27.76726574 136.18305366 29.33432445 136.21888733 30.90135193 C136.3036083 34.72997963 136.37051237 38.55854865 136.4278717 42.38768005 C139.50023965 43.78818711 142.58705245 45.15343733 145.6778717 46.51268005 C146.55056702 46.91100037 147.42326233 47.30932068 148.32240295 47.7197113 C149.16673889 48.08709412 150.01107483 48.45447693 150.8809967 48.83299255 C151.65604553 49.17862244 152.43109436 49.52425232 153.22962952 49.88035583 C155.42238581 50.58705276 155.42238581 50.58705276 157.48207092 49.70701599 C159.62477488 48.2541713 161.31105256 46.69770298 163.1075592 44.83299255 C163.78947327 44.13560974 164.47138733 43.43822693 165.17396545 42.7197113 C166.58556705 41.25630781 167.99702696 39.79276764 169.40834045 38.3290863 C179.64393653 27.86217733 179.64393653 27.86217733 187.3763628 27.29922009 C195.77325975 27.6612898 200.81499758 33.05665353 206.36659241 38.6794281 C207.22125595 39.52533005 208.07591949 40.37123199 208.95648193 41.24276733 C211.28383675 43.55195949 213.59967299 45.87194974 215.90998864 48.19816947 C218.33806143 50.63896573 220.77838435 53.06746624 223.21673584 55.49798584 C227.308273 59.58044514 231.38919792 63.67329025 235.46424866 67.77220154 C240.16516745 72.50032801 244.88382747 77.21017254 249.61210567 81.91092652 C253.68268734 85.95876491 257.74337754 90.0163327 261.79606885 94.08208305 C264.21158172 96.5053618 266.63027602 98.92520558 269.05796242 101.33629417 C271.76298015 104.02858833 274.4514098 106.73643804 277.13612366 109.44895935 C277.93563446 110.238349 278.73514526 111.02773865 279.55888367 111.84104919 C284.62999933 117.00970574 287.96287802 121.49774652 288.6700592 128.93455505 C287.2471648 137.47192148 281.34300529 142.59217838 275.4278717 148.38768005 C274.44295491 149.38064618 273.45983742 150.37540072 272.47865295 151.37205505 C270.14534606 153.72866173 267.79581402 156.06596654 265.4278717 158.38768005 C266.94058463 163.10205723 268.69560124 167.67726591 270.5528717 172.26268005 C270.96859436 173.29521912 270.96859436 173.29521912 271.39271545 174.34861755 C272.06951404 176.02894507 272.74846973 177.70840347 273.4278717 179.38768005 C274.88024231 179.40169861 274.88024231 179.40169861 276.36195374 179.41600037 C279.97422817 179.45604788 283.58566405 179.52184559 287.19740295 179.59519958 C288.7568632 179.62332418 290.31646374 179.64458095 291.87611389 179.65867615 C294.12586343 179.68022547 296.37394144 179.72693062 298.6231842 179.77830505 C299.31405121 179.77953369 300.00491821 179.78076233 300.71672058 179.7820282 C305.72155519 179.93150373 308.61643663 181.17667181 312.4278717 184.38768005 C315.45997605 188.44567823 315.81025024 191.4555757 315.83192444 196.46946716 C315.84221931 197.50949135 315.84221931 197.50949135 315.85272217 198.57052612 C315.87095616 200.85223633 315.86715774 203.13325668 315.86146545 205.4150238 C315.86602902 207.0077639 315.87133511 208.60050203 315.87734985 210.1932373 C315.88627433 213.52790843 315.88386563 216.86233998 315.87391663 220.19700623 C315.86242945 224.46199976 315.88263722 228.72616502 315.91183376 232.99104977 C315.93021553 236.27942117 315.92989939 239.56759481 315.92419624 242.85600471 C315.92404326 244.42802149 315.93006867 246.00005186 315.94248772 247.57201958 C315.95743375 249.77403481 315.94669646 251.97452945 315.92958069 254.17649841 C315.92933144 256.05249977 315.92933144 256.05249977 315.92907715 257.96640015 C315.32297263 262.10373191 314.0942288 264.18871859 311.4278717 267.38768005 C307.62268436 270.16201794 304.96197055 270.76475807 300.2862854 270.77536011 C299.05120239 270.78526474 297.81611938 270.79516937 296.54360962 270.80537415 C295.18284507 270.80113641 293.82208149 270.79657858 292.46131897 270.79173279 C291.02205373 270.79743775 289.58279302 270.80440249 288.14353943 270.81253052 C284.24059923 270.83046353 280.33788384 270.82929331 276.43491483 270.82358813 C273.17446238 270.82049642 269.91405313 270.82658855 266.65360683 270.83262688 C258.9607308 270.84667101 251.26796582 270.84511182 243.5750885 270.83372498 C235.64347212 270.82224405 227.71219388 270.83631908 219.78062207 270.86312145 C212.96602231 270.88528563 206.15152864 270.89191422 199.33689541 270.88604504 C195.26892337 270.88267593 191.20116807 270.88508732 187.13322639 270.90229607 C183.30733189 270.91777469 179.48193788 270.91379997 175.65606308 270.89499092 C174.25404264 270.8913075 172.85198504 270.89440642 171.44999886 270.90487671 C158.33175163 270.99534729 158.33175163 270.99534729 153.4278717 266.38768005 C149.39426856 261.78919594 149.56337275 255.78698323 148.9903717 249.95018005 C146.80340023 230.72204002 141.42358799 213.16994714 128.4278717 198.38768005 C127.83619202 197.65420349 127.24451233 196.92072693 126.63490295 196.1650238 C111.9262045 178.48425845 89.68293345 168.87208259 67.14808655 166.77098083 C43.43427274 165.05581677 20.88869342 172.54526359 2.6153717 187.70018005 C-14.88158357 202.85062012 -25.97693724 223.91361971 -27.99009705 247.0165863 C-28.06655457 247.85681335 -28.14301208 248.69704041 -28.2217865 249.56272888 C-28.368985 251.24474682 -28.49976382 252.92830466 -28.61192322 254.61302185 C-29.05914718 259.88098569 -30.01619034 263.2494108 -33.5721283 267.38768005 C-37.38249907 270.15534532 -40.03629832 270.76475414 -44.7137146 270.77536011 C-45.94879761 270.78526474 -47.18388062 270.79516937 -48.45639038 270.80537415 C-49.81715493 270.80113641 -51.17791851 270.79657858 -52.53868103 270.79173279 C-53.97794627 270.79743775 -55.41720698 270.80440249 -56.85646057 270.81253052 C-60.75940077 270.83046353 -64.66211616 270.82929331 -68.56508517 270.82358813 C-71.82553762 270.82049642 -75.08594687 270.82658855 -78.34639317 270.83262688 C-86.0392692 270.84667101 -93.73203418 270.84511182 -101.4249115 270.83372498 C-109.35652788 270.82224405 -117.28780612 270.83631908 -125.21937793 270.86312145 C-132.03397769 270.88528563 -138.84847136 270.89191422 -145.66310459 270.88604504 C-149.73107663 270.88267593 -153.79883193 270.88508732 -157.86677361 270.90229607 C-161.69266811 270.91777469 -165.51806212 270.91379997 -169.34393692 270.89499092 C-170.74595736 270.8913075 -172.14801496 270.89440642 -173.55000114 270.90487671 C-185.44671594 270.98692294 -185.44671594 270.98692294 -189.265625 268.66882324 C-192.71963126 265.25279394 -194.38402569 262.98607472 -194.95980835 258.09338379 C-194.96521133 256.84351181 -194.97061432 255.59363983 -194.97618103 254.30589294 C-194.98304428 253.61254349 -194.98990753 252.91919403 -194.99697876 252.20483398 C-195.01521276 249.92312378 -195.01141434 247.64210342 -195.00572205 245.3603363 C-195.01028561 243.76759621 -195.01559171 242.17485808 -195.02160645 240.5821228 C-195.03053092 237.24745168 -195.02812223 233.91302013 -195.01817322 230.57835388 C-195.00668605 226.31336035 -195.02689381 222.04919508 -195.05609035 217.78431034 C-195.07447212 214.49593894 -195.07415598 211.2077653 -195.06845284 207.91935539 C-195.06829985 206.34733862 -195.07432526 204.77530825 -195.08674431 203.20334053 C-195.10169034 201.00132529 -195.09095305 198.80083066 -195.07383728 196.59886169 C-195.07367111 195.34819412 -195.07350494 194.09752655 -195.07333374 192.80895996 C-194.34629422 187.84611346 -192.1661403 184.68282553 -188.30381775 181.54466248 C-184.81096344 180.06529555 -181.59873559 179.91023816 -177.86509705 179.8759613 C-177.1397023 179.8580101 -176.41430756 179.8400589 -175.66693115 179.82156372 C-173.36455487 179.76765789 -171.0623835 179.73363005 -168.7596283 179.70018005 C-167.19254261 179.66698938 -165.6254839 179.63249809 -164.05845642 179.59666443 C-160.22965417 179.509508 -156.40176723 179.44927713 -152.5721283 179.38768005 C-148.1171283 168.49768005 -148.1171283 168.49768005 -143.5721283 157.38768005 C-144.2321283 157.38768005 -144.8921283 157.38768005 -145.5721283 157.38768005 C-145.5721283 156.72768005 -145.5721283 156.06768005 -145.5721283 155.38768005 C-146.12126892 155.17498474 -146.67040955 154.96228943 -147.2361908 154.7431488 C-150.38269575 152.91733405 -152.56349908 150.3954324 -154.9471283 147.70018005 C-155.43101013 147.15780701 -155.91489197 146.61543396 -156.41343689 146.05662537 C-157.37012044 144.98280344 -158.32477487 143.90716964 -159.27720642 142.82957458 C-160.35155413 141.63328922 -161.46503164 140.47228108 -162.5877533 139.3212738 C-165.78365606 135.97798717 -167.55608438 133.25045953 -167.68866444 128.52366161 C-167.22700475 120.0619383 -161.97321071 115.06972322 -156.28038025 109.44895935 C-155.4344783 108.59429581 -154.58857635 107.73963226 -153.71704102 106.85906982 C-151.40784886 104.53171501 -149.08785861 102.21587877 -146.76163888 99.90556312 C-144.32084261 97.47749032 -141.89234211 95.03716741 -139.46182251 92.59881592 C-135.37936321 88.50727876 -131.2865181 84.42635384 -127.18760681 80.3513031 C-122.45948034 75.6503843 -117.74963581 70.93172429 -113.04888183 66.20344609 C-109.00104344 62.13286442 -104.94347565 58.07217422 -100.8777253 54.01948291 C-98.45444655 51.60397004 -96.03460277 49.18527574 -93.62351418 46.75758934 C-90.93122002 44.05257161 -88.22337031 41.36414196 -85.510849 38.6794281 C-84.72145935 37.8799173 -83.9320697 37.08040649 -83.11875916 36.25666809 C-77.95010261 31.18555243 -73.46206183 27.85267373 -66.0252533 27.14549255 C-57.48788687 28.56838696 -52.36762997 34.47254647 -46.5721283 40.38768005 C-45.57916217 41.37259685 -44.58440763 42.35571434 -43.5877533 43.3368988 C-41.23114662 45.67020569 -38.89384181 48.01973773 -36.5721283 50.38768005 C-31.85775112 48.87496713 -27.28254244 47.11995051 -22.6971283 45.26268005 C-22.00876892 44.98553162 -21.32040955 44.70838318 -20.6111908 44.4228363 C-18.93086328 43.74603772 -17.25140487 43.06708203 -15.5721283 42.38768005 C-15.55810974 40.93530945 -15.55810974 40.93530945 -15.54380798 39.45359802 C-15.50376047 35.84132358 -15.43796276 32.2298877 -15.36460876 28.6181488 C-15.33648417 27.05868856 -15.3152274 25.49908801 -15.3011322 23.93943787 C-15.27958288 21.68968832 -15.23287773 19.44161031 -15.1815033 17.19236755 C-15.18027466 16.50150055 -15.17904602 15.81063354 -15.17778015 15.09883118 C-15.02830462 10.09399657 -13.78313654 7.19911513 -10.5721283 3.38768005 C-6.93962412 0.78352214 -4.44692375 0.01124394 0 0 Z " fill="#B7B4E7" transform="translate(195.57212829589844,-0.3876800537109375)"/>
<path d="M0 0 C12.67509386 9.86461049 22.25717381 22.85371895 25 39 C26.79749523 59.42170998 22.39386658 75.59635305 10 92 C11.32257813 92.17015625 11.32257813 92.17015625 12.671875 92.34375 C24.45215886 94.66662287 34.94369162 104.23359944 41.6875 113.83203125 C45.53119377 120.18098971 48.50302655 126.54539819 49 134 C49.66 134 50.32 134 51 134 C51.1546875 132.47826172 51.1546875 132.47826172 51.3125 130.92578125 C53.63854819 117.64351746 63.00206875 105.95389612 73.81640625 98.31640625 C84.29376855 92 84.29376855 92 90 92 C89.56429687 91.42894531 89.12859375 90.85789062 88.6796875 90.26953125 C76.80341834 74.10032498 73.5219499 58.65806631 75 39 C77.81265718 22.89114521 87.4639919 9.24033524 100.48046875 -0.40234375 C115.66218992 -10.0292026 132.36288103 -12.38108427 149.9375 -9.3125 C165.22241622 -4.90338955 178.43703167 4.49605239 187 18 C195.23718054 33.46611495 198.32772063 51.0180685 193.375 68.1875 C190.16659414 76.86039924 185.55825351 84.643488 180 92 C181.32257813 92.17015625 181.32257813 92.17015625 182.671875 92.34375 C194.45215886 94.66662287 204.94369162 104.23359944 211.6875 113.83203125 C215.53119377 120.18098971 218.50302655 126.54539819 219 134 C219.66 134 220.32 134 221 134 C221.103125 132.98550781 221.20625 131.97101563 221.3125 130.92578125 C223.63854819 117.64351746 233.00206875 105.95389612 243.81640625 98.31640625 C254.29376855 92 254.29376855 92 260 92 C259.56429688 91.42894531 259.12859375 90.85789062 258.6796875 90.26953125 C246.80341834 74.10032498 243.5219499 58.65806631 245 39 C247.81265718 22.89114521 257.4639919 9.24033524 270.48046875 -0.40234375 C285.66218992 -10.0292026 302.36288103 -12.38108427 319.9375 -9.3125 C335.22241622 -4.90338955 348.43703167 4.49605239 357 18 C365.23718054 33.46611495 368.32772063 51.0180685 363.375 68.1875 C360.16659414 76.86039924 355.55825351 84.643488 350 92 C351.32257813 92.17015625 351.32257813 92.17015625 352.671875 92.34375 C364.46109161 94.66838426 374.93162413 104.23811951 381.69140625 113.83203125 C388.26984299 124.7306354 390.31249807 134.38938026 390.3359375 146.94140625 C390.3425943 148.18244614 390.3492511 149.42348602 390.35610962 150.70213318 C390.36620922 153.31857831 390.37092748 155.93504907 390.37060547 158.55151367 C390.37044233 161.2275681 390.38442551 163.90294229 390.41162109 166.57885742 C390.448246 170.44991926 390.4580766 174.32018852 390.4609375 178.19140625 C390.47530853 179.38528458 390.48967957 180.5791629 390.50448608 181.80921936 C390.44646514 192.35245994 390.44646514 192.35245994 386 197 C381.73339437 200.26339175 377.90459889 200.42543948 372.71777439 200.38031673 C371.8831229 200.38497665 371.0484714 200.38963657 370.18852744 200.3944377 C367.37915303 200.40643125 364.57025835 200.39697548 361.76087952 200.38768005 C359.73143561 200.39185106 357.70199404 200.39732728 355.67255682 200.40399987 C350.08581673 200.41850376 344.49922353 200.41419433 338.91247523 200.40683305 C332.8912463 200.4021159 326.87004981 200.41459831 320.84883118 200.42485046 C309.73149232 200.44107619 298.61419209 200.44347787 287.49684632 200.43854547 C277.22645738 200.43399101 266.95608593 200.43458409 256.68569756 200.44038582 C255.30886125 200.44114268 253.93202494 200.44189866 252.55518864 200.44265376 C250.48050525 200.44379894 248.40582187 200.44494881 246.3311385 200.44611301 C227.03866212 200.4568205 207.74619158 200.46154069 188.45371342 200.45364285 C187.72622756 200.45334567 186.9987417 200.4530485 186.24921082 200.45274232 C180.34124166 200.4502933 174.43327257 200.44768176 168.52530349 200.44505819 C145.4778602 200.43495486 122.43048977 200.44331175 99.38305664 200.46655273 C73.49715875 200.4926137 47.61130473 200.50547641 21.72539324 200.49836498 C18.96630157 200.49764891 16.20720989 200.49697452 13.44811821 200.49632454 C12.42905871 200.49606983 12.42905871 200.49606983 11.38941216 200.49580997 C1.1255742 200.49350516 -9.13822309 200.50149262 -19.40205193 200.51461601 C-31.07209221 200.52951067 -42.7420537 200.53001738 -54.412095 200.5125451 C-60.36924581 200.50400517 -66.3262142 200.50195842 -72.28335571 200.51719666 C-77.73308565 200.53096468 -83.18247554 200.52638264 -88.63218541 200.50695742 C-90.60722956 200.50317278 -92.58230044 200.50618964 -94.55732094 200.51656907 C-97.23593888 200.52964884 -99.91336744 200.51823657 -102.59193325 200.50057125 C-103.75015321 200.51504702 -103.75015321 200.51504702 -104.93177155 200.52981523 C-110.0954581 200.45958469 -113.02005703 199.25554853 -117 196 C-119.74728131 192.43636424 -120.37910764 189.84708974 -120.40405273 185.39038086 C-120.41673691 184.28830795 -120.42942108 183.18623505 -120.44248962 182.05076599 C-120.43955399 180.86741165 -120.43661835 179.68405731 -120.43359375 178.46484375 C-120.4388356 177.23520401 -120.44407745 176.00556427 -120.44947815 174.73866272 C-120.45589941 172.13543451 -120.45456006 169.53217728 -120.44604492 166.92895508 C-120.43758282 162.97618756 -120.46622062 159.02488867 -120.49804688 155.07226562 C-120.49966037 152.53645876 -120.49907852 150.00064937 -120.49609375 147.46484375 C-120.50732773 146.29565903 -120.51856171 145.1264743 -120.53013611 143.92185974 C-120.39195656 127.36352961 -113.60688111 114.46986903 -102 103 C-96.25093318 97.78599485 -87.96737411 92 -80 92 C-80.43570313 91.42894531 -80.87140625 90.85789062 -81.3203125 90.26953125 C-93.19658166 74.10032498 -96.4780501 58.65806631 -95 39 C-92.18734282 22.89114521 -82.5360081 9.24033524 -69.51953125 -0.40234375 C-48.14819705 -13.954089 -21.15448213 -14.1448989 0 0 Z " fill="#FF8493" transform="translate(121,312)"/>
<path d="M0 0 C0.65480693 -0.0003616 1.30961386 -0.00072321 1.98426342 -0.00109577 C4.08968087 0.00113139 6.19428692 0.02391984 8.29956055 0.04760742 C9.59196655 0.05062866 10.88437256 0.0536499 12.21594238 0.0567627 C17.03946936 0.07244781 21.86288242 0.11433173 26.6862793 0.15307617 C37.4731543 0.21495117 48.2600293 0.27682617 59.3737793 0.34057617 C59.3737793 34.99057617 59.3737793 69.64057617 59.3737793 105.34057617 C47.9887793 106.33057617 47.9887793 106.33057617 36.3737793 107.34057617 C7.04391038 113.37414921 -19.63475806 124.59446853 -41.5402832 145.52807617 C-43.6262207 147.34057617 -43.6262207 147.34057617 -45.7746582 148.34057617 C-48.1705259 149.63454691 -48.47245404 150.90582143 -49.6262207 153.34057617 C-51.07226875 154.93377588 -52.55685142 156.492275 -54.0637207 158.02807617 C-79.35412069 185.07063364 -89.00398756 221.50053563 -90.1887207 257.52807617 C-90.25349609 259.38529297 -90.25349609 259.38529297 -90.31958008 261.2800293 C-90.42452562 264.3001288 -90.52668614 267.32029433 -90.6262207 270.34057617 C-103.03937763 270.43327991 -115.45245211 270.50434334 -127.86588478 270.54782486 C-133.63003395 270.56869444 -139.39394618 270.59700112 -145.15795898 270.64233398 C-150.72115786 270.68581339 -156.28412891 270.70971801 -161.84748459 270.72008514 C-163.96937013 270.72747269 -166.09124328 270.74189883 -168.21303177 270.7634964 C-171.18648418 270.79255772 -174.15899665 270.79653096 -177.13256836 270.79467773 C-178.0086676 270.80905884 -178.88476685 270.82343994 -179.78741455 270.83825684 C-185.20350548 270.80176054 -188.4054005 270.05696355 -192.6262207 266.34057617 C-195.79249385 262.39094262 -196.00871373 259.24619364 -196.03027344 254.25878906 C-196.03713669 253.56543961 -196.04399994 252.87209015 -196.05107117 252.1577301 C-196.06930516 249.87601989 -196.06550674 247.59499954 -196.05981445 245.31323242 C-196.06437802 243.72049233 -196.06968411 242.1277542 -196.07569885 240.53501892 C-196.08462332 237.2003478 -196.08221463 233.86591625 -196.07226562 230.53125 C-196.06077845 226.26625647 -196.08098622 222.0020912 -196.11018276 217.73720646 C-196.12856452 214.44883506 -196.12824839 211.16066141 -196.12254524 207.87225151 C-196.12239226 206.30023474 -196.12841767 204.72820437 -196.14083672 203.15623665 C-196.15578275 200.95422141 -196.14504546 198.75372678 -196.12792969 196.55175781 C-196.12776352 195.30109024 -196.12759735 194.05042267 -196.12742615 192.76185608 C-195.40038663 187.79900957 -193.22023271 184.63572165 -189.35791016 181.49755859 C-185.86505585 180.01819166 -182.652828 179.86313428 -178.91918945 179.82885742 C-178.19379471 179.81090622 -177.46839996 179.79295502 -176.72102356 179.77445984 C-174.41864728 179.72055401 -172.11647591 179.68652616 -169.8137207 179.65307617 C-168.24663502 179.61988549 -166.6795763 179.58539421 -165.11254883 179.54956055 C-161.28374658 179.46240412 -157.45585964 179.40217325 -153.6262207 179.34057617 C-149.1712207 168.45057617 -149.1712207 168.45057617 -144.6262207 157.34057617 C-145.2862207 157.34057617 -145.9462207 157.34057617 -146.6262207 157.34057617 C-146.6262207 156.68057617 -146.6262207 156.02057617 -146.6262207 155.34057617 C-147.17536133 155.12788086 -147.72450195 154.91518555 -148.2902832 154.69604492 C-151.43678816 152.87023017 -153.61759149 150.34832852 -156.0012207 147.65307617 C-156.48510254 147.11070312 -156.96898437 146.56833008 -157.4675293 146.00952148 C-158.42421285 144.93569955 -159.37886728 143.86006576 -160.33129883 142.7824707 C-161.40564654 141.58618534 -162.51912405 140.4251772 -163.6418457 139.27416992 C-166.83774847 135.93088329 -168.61017679 133.20335564 -168.74275684 128.47655773 C-168.28109716 120.01483441 -163.02730312 115.02261934 -157.33447266 109.40185547 C-156.48857071 108.54719193 -155.64266876 107.69252838 -154.77113342 106.81196594 C-152.46194126 104.48461113 -150.14195102 102.16877489 -147.81573129 99.85845923 C-145.37493502 97.43038644 -142.94643451 94.99006353 -140.51591492 92.55171204 C-136.43345562 88.46017488 -132.34061051 84.37924995 -128.24169922 80.30419922 C-123.51357275 75.60328042 -118.80372821 70.8846204 -114.10297424 66.15634221 C-110.05513584 62.08576053 -105.99756806 58.02507034 -101.93181771 53.97237903 C-99.50853896 51.55686616 -97.08869518 49.13817185 -94.67760658 46.71048546 C-91.98531242 44.00546773 -89.27746272 41.31703807 -86.56494141 38.63232422 C-85.77555176 37.83281342 -84.98616211 37.03330261 -84.17285156 36.20956421 C-79.00419502 31.13844854 -74.51615423 27.80556985 -67.0793457 27.09838867 C-58.54197928 28.52128308 -53.42172238 34.42544258 -47.6262207 40.34057617 C-46.63325457 41.32549296 -45.63850004 42.30861045 -44.6418457 43.28979492 C-42.28523903 45.62310181 -39.94793421 47.97263385 -37.6262207 50.34057617 C-32.91184352 48.82786325 -28.33663485 47.07284663 -23.7512207 45.21557617 C-23.06286133 44.93842773 -22.37450195 44.6612793 -21.6652832 44.37573242 C-19.98495569 43.69893384 -18.30549728 43.01997815 -16.6262207 42.34057617 C-16.61220215 40.88820557 -16.61220215 40.88820557 -16.59790039 39.40649414 C-16.55785288 35.7942197 -16.49205517 32.18278382 -16.41870117 28.57104492 C-16.39057658 27.01158467 -16.36931981 25.45198413 -16.35522461 23.89233398 C-16.33367528 21.64258444 -16.28697014 19.39450643 -16.2355957 17.14526367 C-16.23436707 16.45439667 -16.23313843 15.76352966 -16.23187256 15.05172729 C-16.08239703 10.04689269 -14.83722895 7.15201125 -11.6262207 3.34057617 C-7.67628368 0.41989781 -4.86914185 -0.02793007 0 0 Z " fill="#E3E3FE" transform="translate(196.626220703125,-0.340576171875)"/>
<path d="M0 0 C12.67509386 9.86461049 22.25717381 22.85371895 25 39 C26.79749523 59.42170998 22.39386658 75.59635305 10 92 C11.32257813 92.17015625 11.32257813 92.17015625 12.671875 92.34375 C24.46109161 94.66838426 34.93162413 104.23811951 41.69140625 113.83203125 C48.26984299 124.7306354 50.31249807 134.38938026 50.3359375 146.94140625 C50.3459227 148.80296608 50.3459227 148.80296608 50.35610962 150.70213318 C50.36620922 153.31857831 50.37092748 155.93504907 50.37060547 158.55151367 C50.37044233 161.2275681 50.38442551 163.90294229 50.41162109 166.57885742 C50.448246 170.44991926 50.4580766 174.32018852 50.4609375 178.19140625 C50.47530853 179.38528458 50.48967957 180.5791629 50.50448608 181.80921936 C50.44646514 192.35245994 50.44646514 192.35245994 46 197 C42.00906232 199.92010823 39.19304096 200.37223626 34.2865448 200.36076355 C33.29395872 200.36460846 33.29395872 200.36460846 32.28132039 200.36853105 C30.07165504 200.37345892 27.86267821 200.3569934 25.65307617 200.34057617 C24.0661521 200.33972968 22.47922685 200.34020547 20.89230347 200.34190369 C16.58891468 200.3427642 12.2857769 200.32512931 7.98244643 200.30418181 C3.48345319 200.28542445 -1.01554584 200.28366531 -5.51457214 200.28010559 C-14.03200124 200.27078236 -22.54931479 200.24616481 -31.06669301 200.21605712 C-40.76431069 200.18252177 -50.4619339 200.16602928 -60.15959513 200.15097082 C-80.10646124 200.11961551 -100.05322334 200.06684959 -120 200 C-120.0932198 191.60197418 -120.16402559 183.20416928 -120.20724869 174.8057518 C-120.22800741 170.90481875 -120.25610641 167.00424308 -120.30175781 163.10351562 C-120.3456395 159.32982182 -120.36922486 155.55646888 -120.37950897 151.78253937 C-120.38682534 150.35220229 -120.40110946 148.92188108 -120.42292023 147.49169159 C-120.66869647 130.68702772 -115.83567901 117.54845328 -104.31640625 105.2890625 C-98.08762461 99.13380779 -89.13040968 92 -80 92 C-80.43570313 91.42894531 -80.87140625 90.85789062 -81.3203125 90.26953125 C-93.19658166 74.10032498 -96.4780501 58.65806631 -95 39 C-92.18734282 22.89114521 -82.5360081 9.24033524 -69.51953125 -0.40234375 C-48.14819705 -13.954089 -21.15448213 -14.1448989 0 0 Z " fill="#BCEAF8" transform="translate(461,312)"/>
<path d="M0 0 C12.67509386 9.86461049 22.25717381 22.85371895 25 39 C26.79749523 59.42170998 22.39386658 75.59635305 10 92 C11.32257813 92.17015625 11.32257813 92.17015625 12.671875 92.34375 C24.46109161 94.66838426 34.93162413 104.23811951 41.69140625 113.83203125 C46.72952891 122.17877177 50.26478053 131.02467101 50.22705078 140.85327148 C50.22734283 141.49802933 50.22763489 142.14278717 50.22793579 142.80708313 C50.22655626 144.91189626 50.21106128 147.01634342 50.1953125 149.12109375 C50.19157745 150.59082343 50.1887328 152.06055562 50.18673706 153.5302887 C50.1791393 157.37884523 50.15952447 161.22724829 50.1373291 165.07574463 C50.11678708 169.01076177 50.10771755 172.94580395 50.09765625 176.88085938 C50.0762745 184.58730918 50.04218578 192.293633 50 200 C29.11187508 200.09344361 8.22378462 200.16397937 -12.66450691 200.20724869 C-22.36332308 200.22787344 -32.06200938 200.25599242 -41.76074219 200.30175781 C-50.21421676 200.34162819 -58.66759727 200.36743344 -67.12116325 200.37635398 C-71.59725264 200.38156839 -76.07307294 200.39382231 -80.54907608 200.42292023 C-84.76305801 200.45009254 -88.97666029 200.45844136 -93.19072151 200.45243073 C-94.73627728 200.45353015 -96.28184588 200.46147344 -97.82732582 200.4768219 C-99.94077781 200.49677949 -102.05280402 200.49191981 -104.16629028 200.48101807 C-105.34802889 200.48470524 -106.52976749 200.48839241 -107.74731636 200.49219131 C-112.66065515 199.7487121 -115.84117938 197.50316408 -118.8497467 193.6006012 C-120.15065571 190.65938336 -120.38609494 188.59873351 -120.40405273 185.39038086 C-120.41673691 184.28830795 -120.42942108 183.18623505 -120.44248962 182.05076599 C-120.43955399 180.86741165 -120.43661835 179.68405731 -120.43359375 178.46484375 C-120.4388356 177.23520401 -120.44407745 176.00556427 -120.44947815 174.73866272 C-120.45589941 172.13543451 -120.45456006 169.53217728 -120.44604492 166.92895508 C-120.43758282 162.97618756 -120.46622062 159.02488867 -120.49804688 155.07226562 C-120.49966037 152.53645876 -120.49907852 150.00064937 -120.49609375 147.46484375 C-120.50732773 146.29565903 -120.51856171 145.1264743 -120.53013611 143.92185974 C-120.39195656 127.36352961 -113.60688111 114.46986903 -102 103 C-96.25093318 97.78599485 -87.96737411 92 -80 92 C-80.43570313 91.42894531 -80.87140625 90.85789062 -81.3203125 90.26953125 C-93.19658166 74.10032498 -96.4780501 58.65806631 -95 39 C-92.18734282 22.89114521 -82.5360081 9.24033524 -69.51953125 -0.40234375 C-48.14819705 -13.954089 -21.15448213 -14.1448989 0 0 Z " fill="#FFCB00" transform="translate(121,312)"/>
<path d="M0 0 C1.86519287 0.00459229 1.86519287 0.00459229 3.76806641 0.00927734 C3.79119433 7.8150293 3.80898379 15.62077329 3.81987858 23.42655087 C3.82510643 27.05073694 3.83220228 30.67489964 3.84350586 34.29907227 C3.85433825 37.79387709 3.86034398 41.28865938 3.86294365 44.78347969 C3.86570192 46.77167123 3.87351328 48.75985366 3.88136292 50.74803162 C3.88143845 51.9492012 3.88151398 53.15037079 3.8815918 54.38793945 C3.88381241 55.4516124 3.88603302 56.51528534 3.88832092 57.6111908 C3.76806641 60.00927734 3.76806641 60.00927734 2.76806641 61.00927734 C0.91148485 61.18619614 -0.94577346 61.35766752 -2.80517578 61.50195312 C-27.37844963 63.52688833 -48.96209507 74.59576673 -65.04443359 93.32177734 C-76.01162198 107.48856748 -83.08750988 123.70821056 -84.64990234 141.63818359 C-84.72635986 142.47841064 -84.80281738 143.3186377 -84.8815918 144.18432617 C-85.02879029 145.86634411 -85.15956912 147.54990195 -85.27172852 149.23461914 C-85.7944025 155.3913278 -87.29606325 159.48419647 -92.14428711 163.65405273 C-96.9632218 165.76917146 -101.67442081 165.37615959 -106.87646484 165.30224609 C-108.0013884 165.29800125 -109.12631195 165.29375641 -110.2853241 165.28938293 C-113.87193921 165.27261425 -117.45798881 165.23496423 -121.04443359 165.19677734 C-123.47867026 165.18172822 -125.91291575 165.16804021 -128.34716797 165.15576172 C-134.30894888 165.1227166 -140.27040083 165.07253463 -146.23193359 165.00927734 C-146.56822373 134.7570999 -146.56822373 134.7570999 -144.23193359 123.00927734 C-144.10302734 122.34847168 -143.97412109 121.68766602 -143.84130859 121.00683594 C-137.72051659 90.38162317 -122.56187956 63.76666059 -100.23193359 42.00927734 C-99.70857422 41.44080078 -99.18521484 40.87232422 -98.64599609 40.28662109 C-74.32242058 14.47489434 -34.8866684 -0.08589435 0 0 Z " fill="#B7B4E7" transform="translate(252.23193359375,104.99072265625)"/>
<path d="M0 0 C40.41037365 -0.27023078 76.90153185 15.52292395 105.625 43.5625 C106.800625 44.7690625 106.800625 44.7690625 108 46 C108.56847656 46.52335937 109.13695312 47.04671875 109.72265625 47.5859375 C131.60612688 68.20773686 145.14828415 99.90825188 148.875 129.3125 C148.99520508 130.23401855 149.11541016 131.15553711 149.23925781 132.10498047 C150.43355171 143.02186201 150.10249547 154.03447359 150 165 C142.84680328 165.10156178 135.69379305 165.17153366 128.54003906 165.21972656 C126.10735119 165.23982071 123.67471149 165.26710088 121.2421875 165.30175781 C117.74206645 165.3503706 114.24258498 165.37299139 110.7421875 165.390625 C109.65759247 165.41127014 108.57299744 165.43191528 107.45553589 165.45318604 C101.30026057 165.45500815 97.67516053 165.1346296 93 161 C88.96639686 156.40151589 89.13550105 150.39930318 88.5625 144.5625 C86.37552852 125.33435996 80.99571629 107.78226709 68 93 C67.40832031 92.26652344 66.81664062 91.53304687 66.20703125 90.77734375 C52.12267231 73.84707311 30.86728197 64.05375666 9.25 61.8125 C7.69279176 61.67224772 6.13550597 61.53285238 4.578125 61.39453125 C1 61 1 61 0 60 C-0.09386381 58.1281906 -0.11743804 56.2528194 -0.11352539 54.37866211 C-0.11344986 53.17749252 -0.11337433 51.97632294 -0.11329651 50.73875427 C-0.10813522 49.4314888 -0.10297394 48.12422333 -0.09765625 46.77734375 C-0.09579198 45.43355868 -0.09436812 44.08977293 -0.09336853 42.74598694 C-0.08954402 39.20317723 -0.07971432 35.6604083 -0.06866455 32.11761475 C-0.05844899 28.50484773 -0.0538706 24.89207416 -0.04882812 21.27929688 C-0.03809198 14.1861812 -0.02101636 7.09309326 0 0 Z " fill="#7873D5" transform="translate(256,105)"/>
<path d="M0 0 C12.67509386 9.86461049 22.25717381 22.85371895 25 39 C26.65806014 57.83755946 23.72702944 74.83576233 11.3125 89.6875 C0.87046467 100.80578143 -13.42819619 109.24506071 -28.83203125 110.25 C-49.24042456 110.78680496 -65.10242135 104.91509233 -80.0625 91.01953125 C-83.97224642 87.15521844 -86.68820368 82.9761006 -89 78 C-89.38414062 77.22785156 -89.76828125 76.45570313 -90.1640625 75.66015625 C-96.43376001 62.46672803 -97.42821241 45.86363637 -93.375 31.8125 C-87.19161406 15.26601777 -76.47141403 2.36232621 -60.4375 -5.3125 C-40.92401888 -14.20441087 -17.72932981 -11.85467818 0 0 Z " fill="#FFC48F" transform="translate(291,312)"/>
<path d="M0 0 C12.67509386 9.86461049 22.25717381 22.85371895 25 39 C26.60560581 57.24161517 23.9175805 73.77284674 12.4375 88.5625 C1.66563301 100.23202257 -13.60179724 109.5557346 -29.69921875 110.3359375 C-39.75135454 110.51784947 -48.63294327 110.05820714 -58 106 C-58.90492188 105.61070312 -59.80984375 105.22140625 -60.7421875 104.8203125 C-72.45312083 99.08365241 -83.45853605 89.9279029 -89 78 C-89.38414062 77.22785156 -89.76828125 76.45570313 -90.1640625 75.66015625 C-96.43376001 62.46672803 -97.42821241 45.86363637 -93.375 31.8125 C-87.19161406 15.26601777 -76.47141403 2.36232621 -60.4375 -5.3125 C-40.92401888 -14.20441087 -17.72932981 -11.85467818 0 0 Z " fill="#FEC58F" transform="translate(461,312)"/>
<path d="M0 0 C12.67509386 9.86461049 22.25717381 22.85371895 25 39 C26.62882584 57.50542267 23.85332981 74.34881213 11.875 89.125 C0.91135284 100.91152575 -13.57168688 109.17058181 -29.74609375 110.25 C-49.74501614 110.57223843 -66.11150791 104.07638168 -80.77734375 90.38671875 C-84.27468868 86.63122182 -86.70787962 82.56982491 -89 78 C-89.38929687 77.22398437 -89.77859375 76.44796875 -90.1796875 75.6484375 C-96.40525764 62.42478122 -97.43394 45.88349201 -93.375 31.8125 C-87.19161406 15.26601777 -76.47141403 2.36232621 -60.4375 -5.3125 C-40.92401888 -14.20441087 -17.72932981 -11.85467818 0 0 Z " fill="#FFC58F" transform="translate(121,312)"/>
<path d="M0 0 C2.98769299 1.00286198 5.72292582 2.21882055 8.54296875 3.625 C9.40664063 4.05554688 10.2703125 4.48609375 11.16015625 4.9296875 C25.21978422 12.68219265 33.38480055 25.29979825 38.08348083 40.3571167 C38.6834868 43.31855153 38.66226198 46.11534618 38.65649414 49.13769531 C38.65661468 49.79238171 38.65673521 50.4470681 38.6568594 51.12159348 C38.65611547 53.23213904 38.648511 55.34259532 38.640625 57.453125 C38.63961792 58.74653809 38.63861084 60.03995117 38.63757324 61.37255859 C38.63233902 66.20671474 38.61837777 71.04085826 38.60546875 75.875 C38.58484375 86.6825 38.56421875 97.49 38.54296875 108.625 C10.49296875 108.625 -17.55703125 108.625 -46.45703125 108.625 C-46.45703125 78.925 -46.45703125 49.225 -46.45703125 18.625 C-39.52703125 17.635 -39.52703125 17.635 -32.45703125 16.625 C-22.98810528 14.20334939 -13.62955933 10.26422235 -6.8984375 2.92578125 C-4.70118055 0.55423763 -3.25068204 -0.49612953 0 0 Z " fill="#FF1F3D" transform="translate(302.45703125,403.375)"/>
<path d="M0 0 C3.72687809 1.88195003 6.93669615 4.41377002 10.25 6.9375 C21.17379672 14.95024457 31.34330209 17.04904316 45 19 C45 48.7 45 78.4 45 109 C32.58375 109.0825 20.1675 109.165 7.375 109.25 C3.46188965 109.28641602 -0.4512207 109.32283203 -4.48291016 109.36035156 C-9.2800293 109.37841797 -9.2800293 109.37841797 -11.52938843 109.3817749 C-13.09250448 109.3878969 -14.65560222 109.40192329 -16.21859741 109.42230225 C-18.59349115 109.45170555 -20.9672359 109.45562017 -23.34228516 109.45410156 C-24.03269205 109.468494 -24.72309895 109.48288643 -25.43442726 109.497715 C-30.40761814 109.45532304 -33.22165223 108.18587525 -37 105 C-39.74728131 101.43636424 -40.37910764 98.84708974 -40.40405273 94.39038086 C-40.41673691 93.28830795 -40.42942108 92.18623505 -40.44248962 91.05076599 C-40.43955399 89.86741165 -40.43661835 88.68405731 -40.43359375 87.46484375 C-40.4388356 86.23520401 -40.44407745 85.00556427 -40.44947815 83.73866272 C-40.45589941 81.13543451 -40.45456006 78.53217728 -40.44604492 75.92895508 C-40.43758282 71.97618756 -40.46622062 68.02488867 -40.49804688 64.07226562 C-40.49966037 61.53645876 -40.49907852 59.00064937 -40.49609375 56.46484375 C-40.50732773 55.29565903 -40.51856171 54.1264743 -40.53013611 52.92185974 C-40.39195656 36.36352961 -33.60688111 23.46986903 -22 12 C-15.64994318 6.24093857 -8.09228775 2.69742925 0 0 Z " fill="#FFEE4A" transform="translate(41,403)"/>
<path d="M0 0 C2.97065219 1.01803249 5.54592421 2.28803469 8.28125 3.828125 C9.13976562 4.26253906 9.99828125 4.69695312 10.8828125 5.14453125 C24.90227028 12.76191466 33.30967374 25.58050167 37.8177948 40.61782837 C38.37165281 43.25927136 38.43128794 45.71974922 38.45825195 48.41943359 C38.47750481 50.10170547 38.47750481 50.10170547 38.49714661 51.81796265 C38.50453354 53.0253006 38.51192047 54.23263855 38.51953125 55.4765625 C38.527603 56.72184723 38.53567474 57.96713196 38.54399109 59.25015259 C38.55781915 61.88457957 38.56883978 64.51888196 38.57641602 67.15332031 C38.5852848 69.8498386 38.60618318 72.54584303 38.63793945 75.2421875 C38.68053059 79.1329709 38.69677304 83.02307518 38.70703125 86.9140625 C38.72453934 88.11735199 38.74204742 89.32064148 38.76008606 90.56039429 C38.73250532 101.19288636 38.73250532 101.19288636 34.28125 105.828125 C30.17893614 108.90291449 26.71000852 109.24604876 21.73706055 109.16870117 C20.98313176 109.16906278 20.22920298 109.16942438 19.45242786 109.16979694 C17.02400001 109.16756662 14.59627222 109.14476249 12.16796875 109.12109375 C10.66394381 109.11668014 9.15991426 109.11362131 7.65588379 109.11193848 C2.09343536 109.09624172 -3.46891428 109.05435786 -9.03125 109.015625 C-21.468125 108.95375 -33.905 108.891875 -46.71875 108.828125 C-46.71875 79.128125 -46.71875 49.428125 -46.71875 18.828125 C-42.42875 18.168125 -38.13875 17.508125 -33.71875 16.828125 C-23.59376762 14.3586171 -15.35088235 10.36428716 -7.71875 3.203125 C-3.58229557 -0.22646696 -3.58229557 -0.22646696 0 0 Z " fill="#7DD5F3" transform="translate(472.71875,403.171875)"/>
<path d="M0 0 C0 39.6 0 79.2 0 120 C-18.9409685 120 -33.0753292 112.36292197 -46.53662109 99.51513672 C-49.83775714 96.09724378 -52.01242707 92.27821548 -54 88 C-54.38414062 87.22785156 -54.76828125 86.45570313 -55.1640625 85.66015625 C-61.43376001 72.46672803 -62.42821241 55.86363637 -58.375 41.8125 C-52.19161406 25.26601777 -41.47141403 12.36232621 -25.4375 4.6875 C-16.18881828 0.6686638 -10.60565343 0 0 0 Z " fill="#FED7AA" transform="translate(426,302)"/>
<path d="M0 0 C0 39.6 0 79.2 0 120 C-19.58529559 118.60105032 -34.56986258 112.42146567 -48 98 C-50.33576798 94.81029534 -52.22908302 91.53069613 -54 88 C-54.38929688 87.22398437 -54.77859375 86.44796875 -55.1796875 85.6484375 C-61.40525764 72.42478122 -62.43394 55.88349201 -58.375 41.8125 C-52.19161406 25.26601777 -41.47141403 12.36232621 -25.4375 4.6875 C-16.18881828 0.6686638 -10.60565343 0 0 0 Z " fill="#FFD6AA" transform="translate(256,302)"/>
<path d="M0 0 C0 39.6 0 79.2 0 120 C-19.58529559 118.60105032 -34.56986258 112.42146567 -48 98 C-50.33576798 94.81029534 -52.22908302 91.53069613 -54 88 C-54.38929687 87.22398437 -54.77859375 86.44796875 -55.1796875 85.6484375 C-61.40525764 72.42478122 -62.43394 55.88349201 -58.375 41.8125 C-52.19161406 25.26601777 -41.47141403 12.36232621 -25.4375 4.6875 C-16.18881828 0.6686638 -10.60565343 0 0 0 Z " fill="#FFD7A9" transform="translate(86,302)"/>
</svg>
